<svg id="eL4lj7zg2JK1" xmlns="http://www.w3.org/2000/svg" xmlns:xlink="http://www.w3.org/1999/xlink" viewBox="0 0 640 480" shape-rendering="geometricPrecision" text-rendering="geometricPrecision"><g transform="translate(3.060006 331.376595)"><ellipse rx="32.582134" ry="32.582134" transform="translate(572.582134 56.041271)" fill="#d2dbed" stroke-width="0"/><ellipse rx="32.582134" ry="32.582134" transform="translate(168.167254 56.041271)" fill="#d2dbed" stroke-width="0"/><ellipse rx="32.582134" ry="32.582134" transform="translate(271.126798 56.041271)" fill="#d2dbed" stroke-width="0"/><ellipse rx="32.582134" ry="32.582134" transform="translate(367.569915 56.041271)" fill="#d2dbed" stroke-width="0"/><ellipse rx="32.582134" ry="32.582134" transform="translate(466.619603 56.041271)" fill="#d2dbed" stroke-width="0"/><ellipse rx="32.582134" ry="32.582134" transform="translate(61.297854 56.041271)" fill="#d2dbed" stroke-width="0"/></g><g transform="translate(3.060006 231.376595)"><ellipse rx="32.582134" ry="32.582134" transform="translate(572.582134 56.041271)" fill="#d2dbed" stroke-width="0"/><ellipse rx="32.582134" ry="32.582134" transform="translate(168.167254 56.041271)" fill="#d2dbed" stroke-width="0"/><ellipse rx="32.582134" ry="32.582134" transform="translate(271.126798 56.041271)" fill="#d2dbed" stroke-width="0"/><ellipse rx="32.582134" ry="32.582134" transform="translate(367.569915 56.041271)" fill="#d2dbed" stroke-width="0"/><ellipse rx="32.582134" ry="32.582134" transform="translate(466.619603 56.041271)" fill="#d2dbed" stroke-width="0"/><ellipse rx="32.582134" ry="32.582134" transform="translate(61.297854 56.041271)" fill="#d2dbed" stroke-width="0"/></g><g transform="translate(3.060006 116.540863)"><ellipse rx="32.582134" ry="32.582134" transform="translate(572.582134 56.041271)" fill="#d2dbed" stroke-width="0"/><ellipse rx="32.582134" ry="32.582134" transform="translate(168.167254 56.041271)" fill="#d2dbed" stroke-width="0"/><ellipse rx="32.582134" ry="32.582134" transform="translate(271.126798 56.041271)" fill="#d2dbed" stroke-width="0"/><ellipse rx="32.582134" ry="32.582134" transform="translate(367.569915 56.041271)" fill="#d2dbed" stroke-width="0"/><ellipse rx="32.582134" ry="32.582134" transform="translate(466.619603 56.041271)" fill="#d2dbed" stroke-width="0"/><ellipse rx="32.582134" ry="32.582134" transform="translate(61.297854 56.041271)" fill="#d2dbed" stroke-width="0"/></g><g><ellipse rx="32.582134" ry="32.582134" transform="translate(572.582134 56.041271)" fill="#d2dbed" stroke-width="0"/><ellipse rx="32.582134" ry="32.582134" transform="translate(168.167254 56.041271)" fill="#d2dbed" stroke-width="0"/><ellipse rx="32.582134" ry="32.582134" transform="translate(271.126798 56.041271)" fill="#d2dbed" stroke-width="0"/><ellipse rx="32.582134" ry="32.582134" transform="translate(367.569915 56.041271)" fill="#d2dbed" stroke-width="0"/><ellipse rx="32.582134" ry="32.582134" transform="translate(466.619603 56.041271)" fill="#d2dbed" stroke-width="0"/><ellipse rx="32.582134" ry="32.582134" transform="translate(61.297854 56.041271)" fill="#d2dbed" stroke-width="0"/></g></svg>